<?xml version="1.0" encoding="UTF-8"?>
<svg id="Calque_1" data-name="Calque 1" xmlns="http://www.w3.org/2000/svg" viewBox="0 0 609.42 983.27">
  <defs>
    <style>
      .cls-1 {
        fill: red;
      }
    </style>
  </defs>
  <path class="cls-1" d="M563.02,144.07V852.54c0,58.83-43.89,100.76-123.68,100.76s-122.08-39.43-122.08-100.76v-216.54h109.31v219.05c0,8.76,3.19,15.02,13.56,15.02,9.57,0,12.77-6.26,12.77-15.02V149.08c0-15.02-9.57-20.03-23.14-20.03-4.79,0-8.78,.63-12.77,1.88V448.86h23.14v83.86h-124.47V72.73c23.94-15.65,70.22-26.91,114.1-26.91,87.77,0,133.25,34.42,133.25,98.26Z"/>
  <path class="cls-1" d="M291.73,948.29h-107.72v-388.03h-27.93v388.03H48.37V50.82h107.72V473.9h27.93V50.82h107.72V948.29Z"/>
</svg>