<?xml version="1.0" encoding="UTF-8"?>
<svg id="Calque_1" data-name="Calque 1" xmlns="http://www.w3.org/2000/svg" viewBox="0 0 609.42 983.27">
  <defs>
    <style>
      .cls-1 {
        fill: red;
      }
    </style>
  </defs>
  <path class="cls-1" d="M561.95,143.76v246.24h-108.05V147.51c0-11.25-6.4-16.25-13.61-16.25-8.8,0-12.81,5.62-12.81,18.12v204.36c0,40,8.8,57.5,20.81,76.25l68.83,112.49c28.81,43.12,44.02,77.5,44.02,135.62v173.74c0,63.75-47.22,101.87-123.26,101.87s-119.26-36.87-119.26-99.99v-198.74h106.45v197.49c0,10.62,3.2,16.25,12.81,16.25s13.61-5,13.61-17.5v-176.24c0-28.12-3.2-44.37-20.81-72.5l-64.03-105.62c-27.21-42.5-48.82-76.87-48.82-144.37V148.14c0-62.5,38.42-101.87,123.26-101.87s120.86,40,120.86,97.49Z"/>
  <path class="cls-1" d="M265,948.1H93.72L47.3,51.89h109.65l8,262.49h30.41l7.2-262.49h107.25l-44.82,896.2ZM165.75,400.63l13.61,449.35h1.6l13.61-449.35h-28.81Z"/>
</svg>