<?xml version="1.0" encoding="UTF-8"?>
<svg id="Calque_1" data-name="Calque 1" xmlns="http://www.w3.org/2000/svg" viewBox="0 0 609.42 983.27">
  <defs>
    <style>
      .cls-1 {
        fill: red;
      }
    </style>
  </defs>
  <path class="cls-1" d="M47.3,45.82h124.64c83.63,0,120.62,32.27,120.62,94.92v241.1c0,54.42-20.91,79.73-69.96,90.49,53.07,12.66,72.37,36.7,72.37,87.33v292.36c0,70.24-43.42,101.25-131.08,101.25H47.3V45.82Zm111.78,388.55c19.3,0,25.73-8.23,25.73-25.95V149.6c0-15.19-8.04-20.88-25.73-20.88h-3.22V434.36h3.22Zm0,436.01c19.3,0,26.54-7.59,26.54-27.21v-303.75c0-16.45-7.24-24.05-26.54-24.05h-3.22v355.01h3.22Z"/>
  <path class="cls-1" d="M315.88,45.82h119.82c91.67,0,126.25,38.6,126.25,101.88v226.55c0,54.42-22.52,82.9-72.37,94.92,57.09,12.66,71.57,33.54,71.57,73.41v410.7h-109.36v-420.19c0-17.09-7.24-22.78-27.34-22.78v442.97h-108.56V45.82Zm110.17,381.59c18.5,0,27.34-10.76,27.34-31.01V152.76c0-18.35-8.04-25.31-27.34-25.31h-1.61V427.4h1.61Z"/>
</svg>