<?xml version="1.0" encoding="UTF-8"?>
<svg id="Calque_1" data-name="Calque 1" xmlns="http://www.w3.org/2000/svg" viewBox="0 0 609.42 983.27">
  <defs>
    <style>
      .cls-1 {
        fill: red;
      }
    </style>
  </defs>
  <path class="cls-1" d="M47.3,51.89h219.52v85.62h-96.55V446.25h83.8v86.25h-83.8v329.36h96.55v86.25H47.3V51.89Z"/>
  <path class="cls-1" d="M284.13,856.23v-246.24h122.97v242.49c0,11.25,7.29,16.25,15.49,16.25,10.02,0,14.57-5.62,14.57-18.12v-204.36c0-40-10.02-57.5-23.68-76.25l-78.34-112.49c-32.79-43.12-50.1-77.5-50.1-135.62V148.14c0-63.75,53.74-101.87,140.28-101.87s135.72,36.87,135.72,99.99v198.74h-121.15V147.51c0-10.62-3.64-16.25-14.57-16.25s-15.49,5-15.49,17.5v176.24c0,28.12,3.64,44.37,23.68,72.5l72.87,105.62c30.97,42.5,55.56,76.87,55.56,144.37v204.36c0,62.5-43.72,101.87-140.28,101.87s-137.54-40-137.54-97.49Z"/>
</svg>