<?xml version="1.0" encoding="UTF-8"?>
<svg id="Calque_1" data-name="Calque 1" xmlns="http://www.w3.org/2000/svg" viewBox="0 0 609.42 983.27">
  <defs>
    <style>
      .cls-1 {
        fill: red;
      }
    </style>
  </defs>
  <path class="cls-1" d="M561.95,142.55v379.47h-107.79V145.07c0-9.44-3.24-14.47-12.16-14.47s-12.97,5.03-12.97,14.47V953.72h-109.41V142.55c0-59.78,38.9-96.28,122.38-96.28s119.95,37.76,119.95,96.28Z"/>
  <path class="cls-1" d="M293.68,953.72h-107.79c-93.2,0-138.59-30.84-138.59-107.61v-315.91c0-79.29,47.82-102.58,132.92-102.58h4.05V51.3h109.41V953.72Zm-136.16-415.34v308.36c0,19.51,8.1,25.8,25.12,25.8h1.62V508.81c-20.26,0-26.75,6.29-26.75,29.58Z"/>
</svg>