<?xml version="1.0" encoding="UTF-8"?>
<svg id="Calque_1" data-name="Calque 1" xmlns="http://www.w3.org/2000/svg" viewBox="0 0 609.42 983.27">
  <defs>
    <style>
      .cls-1 {
        fill: red;
      }
    </style>
  </defs>
  <path class="cls-1" d="M47.3,45.82h209.67v86.7h-87.14V446.39h79.88v87.33h-79.88v419.55H47.3V45.82Z"/>
  <path class="cls-1" d="M284.2,45.82h135.24c103.48,0,142.51,38.6,142.51,101.88v226.55c0,54.42-25.41,82.9-81.69,94.92,64.44,12.66,80.78,33.54,80.78,73.41v410.7h-123.44v-420.19c0-17.09-8.17-22.78-30.86-22.78v442.97h-122.54V45.82Zm124.35,381.59c20.88,0,30.86-10.76,30.86-31.01V152.76c0-18.35-9.08-25.31-30.86-25.31h-1.82V427.4h1.82Z"/>
</svg>