<?xml version="1.0" encoding="UTF-8"?>
<svg id="Calque_1" data-name="Calque 1" xmlns="http://www.w3.org/2000/svg" viewBox="0 0 609.42 983.27">
  <defs>
    <style>
      .cls-1 {
        fill: red;
      }
    </style>
  </defs>
  <path class="cls-1" d="M131.35,879.88c-57.1-9.81-84.06-41.54-84.06-90.57V139.73c0-52.5,42.82-93.46,122.12-93.46s122.12,36.92,122.12,93.46V789.31c0,43.27-21.41,73.27-65.03,85.96l53.13,78.46h-117.36l-30.93-73.84Zm38.06-73.84c9.52,0,12.69-5.19,12.69-13.27V135.69c0-7.5-3.17-12.69-12.69-12.69s-12.69,5.19-12.69,12.69V792.77c0,8.08,3.17,13.27,12.69,13.27Z"/>
  <path class="cls-1" d="M346.25,45.82h169.7l45.99,907.45h-108.64l-7.93-265.78h-30.13l-7.14,265.78h-106.26L346.25,45.82Zm98.33,554.34l-13.48-454.99h-1.59l-13.48,454.99h28.55Z"/>
</svg>