<?xml version="1.0" encoding="UTF-8"?>
<svg id="Calque_1" data-name="Calque 1" xmlns="http://www.w3.org/2000/svg" viewBox="0 0 609.42 983.27">
  <defs>
    <style>
      .cls-1 {
        fill: red;
      }
    </style>
  </defs>
  <path class="cls-1" d="M561.95,948.72h-217.98v-85.74h95.88v-309.16h-83.21v-86.36h83.21V137.64h-95.88V51.28h217.98V948.72Z"/>
  <path class="cls-1" d="M323.16,144.52V854.22c0,55.7-47.94,99.51-138.39,99.51s-137.48-39.43-137.48-99.51v-248.45h123.01v251.58c0,6.88,4.52,13.14,14.47,13.14s14.47-6.26,14.47-13.14V142.65c0-7.51-4.52-13.14-14.47-13.14s-14.47,5.63-14.47,13.14V429.28H47.3V144.52c0-60.08,46.13-98.26,138.39-98.26s137.48,37.55,137.48,98.26Z"/>
</svg>