<?xml version="1.0" encoding="UTF-8"?>
<svg id="Calque_1" data-name="Calque 1" xmlns="http://www.w3.org/2000/svg" viewBox="0 0 609.42 983.27">
  <defs>
    <style>
      .cls-1 {
        fill: red;
      }
    </style>
  </defs>
  <path class="cls-1" d="M561.95,948.1h-120.95c-92.54,0-127.45-38.12-127.45-100.62v-223.74c0-53.75,22.73-81.87,73.06-93.75-57.63-12.5-72.25-33.12-72.25-72.5V51.89h110.4V466.87c0,16.87,7.31,22.5,27.6,22.5V51.89h109.59V948.1Zm-111.21-376.86c-18.67,0-27.6,10.62-27.6,30.62v240.61c0,18.12,8.12,25,27.6,25h1.62v-296.23h-1.62Z"/>
  <path class="cls-1" d="M294.88,143.76v246.24h-109.59V147.51c0-11.25-6.49-16.25-13.8-16.25-8.93,0-12.99,5.62-12.99,18.12v204.36c0,40,8.93,57.5,21.11,76.25l69.81,112.49c29.22,43.12,44.65,77.5,44.65,135.62v173.74c0,63.75-47.89,101.87-125.01,101.87s-120.95-36.87-120.95-99.99v-198.74h107.96v197.49c0,10.62,3.25,16.25,12.99,16.25s13.8-5,13.8-17.5v-176.24c0-28.12-3.25-44.37-21.11-72.5l-64.94-105.62c-27.6-42.5-49.52-76.87-49.52-144.37V148.14c0-62.5,38.96-101.87,125.01-101.87s122.57,40,122.57,97.49Z"/>
</svg>