<?xml version="1.0" encoding="UTF-8"?>
<svg id="Calque_1" data-name="Calque 1" xmlns="http://www.w3.org/2000/svg" viewBox="0 0 609.42 983.27">
  <defs>
    <style>
      .cls-1 {
        fill: red;
      }
    </style>
  </defs>
  <path class="cls-1" d="M41.75,856.23V51.89h110.04V855.6c0,8.75,4.85,13.75,13.76,13.75s14.56-5,14.56-13.75V51.89h109.23V856.23c0,59.37-42.08,96.87-123.8,96.87s-123.8-37.5-123.8-96.87Z"/>
  <path class="cls-1" d="M309.58,856.23v-246.24h109.23v242.49c0,11.25,6.47,16.25,13.76,16.25,8.9,0,12.95-5.62,12.95-18.12v-204.36c0-40-8.9-57.5-21.04-76.25l-69.59-112.49c-29.13-43.12-44.5-77.5-44.5-135.62V148.14c0-63.75,47.74-101.87,124.61-101.87s120.56,36.87,120.56,99.99v198.74h-107.62V147.51c0-10.62-3.24-16.25-12.95-16.25s-13.76,5-13.76,17.5v176.24c0,28.12,3.24,44.37,21.04,72.5l64.73,105.62c27.51,42.5,49.36,76.87,49.36,144.37v204.36c0,62.5-38.84,101.87-124.61,101.87s-122.18-40-122.18-97.49Z"/>
</svg>