<?xml version="1.0" encoding="UTF-8"?>
<svg id="Calque_1" data-name="Calque 1" xmlns="http://www.w3.org/2000/svg" viewBox="0 0 609.42 983.27">
  <defs>
    <style>
      .cls-1 {
        fill: red;
      }
    </style>
  </defs>
  <path class="cls-1" d="M561.95,953.27h-107.72v-392.34h-27.93v392.34h-107.72V45.82h107.72V473.6h27.93V45.82h107.72V953.27Z"/>
  <path class="cls-1" d="M291.46,953.27h-118.89c-90.96,0-125.27-38.6-125.27-101.88v-226.55c0-54.42,22.34-82.9,71.81-94.92-56.65-12.66-71.01-33.54-71.01-73.41V45.82h108.52V466c0,17.09,7.18,22.78,27.13,22.78V45.82h107.72V953.27Zm-109.31-381.59c-18.35,0-27.13,10.76-27.13,31.01v243.63c0,18.35,7.98,25.31,27.13,25.31h1.6v-299.95h-1.6Z"/>
</svg>