<?xml version="1.0" encoding="UTF-8"?>
<svg id="Calque_1" data-name="Calque 1" xmlns="http://www.w3.org/2000/svg" viewBox="0 0 609.42 983.27">
  <defs>
    <style>
      .cls-1 {
        fill: red;
      }
    </style>
  </defs>
  <path class="cls-1" d="M47.3,855.01V145.3c0-55.7,42.82-99.51,123.61-99.51s122.81,39.43,122.81,99.51v248.46h-109.88V142.17c0-6.88-4.04-13.14-12.93-13.14s-12.93,6.26-12.93,13.14V856.89c0,7.51,4.04,13.14,12.93,13.14s12.93-5.63,12.93-13.14v-286.64h109.88v284.76c0,60.08-41.2,98.26-123.61,98.26s-122.81-37.55-122.81-98.26Z"/>
  <path class="cls-1" d="M315.53,50.79h109.07V438.82h28.28V50.79h109.07V948.26h-109.07v-423.07h-28.28v423.07h-109.07V50.79Z"/>
</svg>