<?xml version="1.0" encoding="UTF-8"?>
<svg id="Calque_1" data-name="Calque 1" xmlns="http://www.w3.org/2000/svg" viewBox="0 0 609.42 983.27">
  <defs>
    <style>
      .cls-1 {
        fill: red;
      }
    </style>
  </defs>
  <path class="cls-1" d="M561.95,144.52V854.22c0,55.7-34.21,99.51-98.76,99.51s-98.12-39.43-98.12-99.51v-248.45h87.79v251.58c0,6.88,3.23,13.14,10.33,13.14s10.33-6.26,10.33-13.14V142.65c0-7.51-3.23-13.14-10.33-13.14s-10.33,5.63-10.33,13.14V429.28h-87.79V144.52c0-60.08,32.92-98.26,98.76-98.26s98.12,37.55,98.12,98.26Z"/>
  <path class="cls-1" d="M347.64,948.72h-123.29l-27.76-587.65h-1.29l-25.18,587.65H47.47V51.28H126.22l-.65,673.39h1.29L159.15,51.28h76.82l32.28,671.52h1.29l-.65-671.52h78.75V948.72Z"/>
</svg>