<?xml version="1.0" encoding="UTF-8"?>
<svg id="Calque_1" data-name="Calque 1" xmlns="http://www.w3.org/2000/svg" viewBox="0 0 609.42 983.27">
  <defs>
    <style>
      .cls-1 {
        fill: red;
      }
    </style>
  </defs>
  <path class="cls-1" d="M454.89,506.32V46.27h107.05V953.72h-107.05v-387.28l-46.79,387.28h-106.26l62.65-404.37L301.05,46.27h110.23l43.61,460.05Z"/>
  <path class="cls-1" d="M289.95,953.72h-118.16c-90.4,0-124.5-38.6-124.5-101.88v-226.55c0-54.42,22.2-82.9,71.37-94.92-56.3-12.66-70.58-33.54-70.58-73.41V46.27h107.85V466.46c0,17.09,7.14,22.78,26.96,22.78V46.27h107.05V953.72Zm-108.64-381.59c-18.24,0-26.96,10.76-26.96,31.01v243.63c0,18.35,7.93,25.31,26.96,25.31h1.59v-299.95h-1.59Z"/>
</svg>