<?xml version="1.0" encoding="UTF-8"?>
<svg id="Calque_1" data-name="Calque 1" xmlns="http://www.w3.org/2000/svg" viewBox="0 0 609.42 983.27">
  <defs>
    <style>
      .cls-1 {
        fill: red;
      }
    </style>
  </defs>
  <path class="cls-1" d="M47.3,855.81v-246.25h99.68v242.5c0,11.25,5.91,16.25,12.55,16.25,8.12,0,11.81-5.62,11.81-18.12v-204.37c0-40-8.12-57.5-19.2-76.25l-63.5-112.5c-26.58-43.12-40.61-77.5-40.61-135.62V147.69c0-63.75,43.56-101.87,113.71-101.87s110.02,36.87,110.02,100v198.75h-98.2V147.06c0-10.62-2.95-16.25-11.81-16.25s-12.55,5-12.55,17.5v176.25c0,28.12,2.95,44.37,19.2,72.5l59.07,105.62c25.1,42.5,45.04,76.87,45.04,144.37v204.37c0,62.5-35.44,101.87-113.71,101.87s-111.5-40-111.5-97.5Z"/>
  <path class="cls-1" d="M291.7,51.44h124.05l54.64,601.24h1.48l-3.69-601.24h93.77V947.68h-121.09l-57.59-636.87h-1.48l3.69,636.87h-93.77V51.44Z"/>
</svg>