<?xml version="1.0" encoding="UTF-8"?>
<svg id="Calque_1" data-name="Calque 1" xmlns="http://www.w3.org/2000/svg" viewBox="0 0 609.42 983.27">
  <defs>
    <style>
      .cls-1 {
        fill: red;
      }
    </style>
  </defs>
  <path class="cls-1" d="M562.35,144.52V854.22c0,55.7-42.84,99.51-123.67,99.51s-122.86-39.43-122.86-99.51v-248.45h109.93v251.58c0,6.88,4.04,13.14,12.93,13.14s12.93-6.26,12.93-13.14V142.65c0-7.51-4.04-13.14-12.93-13.14s-12.93,5.63-12.93,13.14V429.28h-109.93V144.52c0-60.08,41.22-98.26,123.67-98.26s122.86,37.55,122.86,98.26Z"/>
  <path class="cls-1" d="M294.64,943.71h-120.44c-92.15,0-126.91-38.18-126.91-100.76v-224.05c0-53.82,22.63-81.98,72.75-93.87-57.39-12.52-71.94-33.17-71.94-72.6V46.27h109.93V461.82c0,16.9,7.27,22.53,27.48,22.53V46.27h109.12V943.71Zm-110.74-377.38c-18.59,0-27.48,10.64-27.48,30.67v240.94c0,18.15,8.08,25.03,27.48,25.03h1.62v-296.64h-1.62Z"/>
</svg>