<?xml version="1.0" encoding="UTF-8"?>
<svg id="Calque_1" data-name="Calque 1" xmlns="http://www.w3.org/2000/svg" viewBox="0 0 609.42 983.27">
  <defs>
    <style>
      .cls-1 {
        fill: red;
      }
    </style>
  </defs>
  <path class="cls-1" d="M47.3,45.82H186.03c93.08,0,134.26,32.27,134.26,94.92v241.1c0,54.42-23.27,79.73-77.87,90.49,59.07,12.66,80.55,36.7,80.55,87.33v292.36c0,70.24-48.33,101.25-145.89,101.25H47.3V45.82Zm124.41,388.55c21.48,0,28.64-8.23,28.64-25.95V149.6c0-15.19-8.95-20.88-28.64-20.88h-3.58V434.36h3.58Zm0,436.01c21.48,0,29.54-7.59,29.54-27.21v-303.75c0-16.45-8.06-24.05-29.54-24.05h-3.58v355.01h3.58Z"/>
  <path class="cls-1" d="M346.24,45.82h215.71v86.7h-94.88V445.12h82.34v87.33h-82.34v333.49h94.88v87.33h-215.71V45.82Z"/>
</svg>