<?xml version="1.0" encoding="UTF-8"?>
<svg id="Calque_1" data-name="Calque 1" xmlns="http://www.w3.org/2000/svg" viewBox="0 0 609.42 983.27">
  <defs>
    <style>
      .cls-1 {
        fill: red;
      }
    </style>
  </defs>
  <path class="cls-1" d="M47.3,855.47V147.03c0-58.83,43.68-100.76,123.1-100.76s121.52,39.43,121.52,100.76v216.54h-108.81V144.52c0-8.76-3.18-15.02-13.5-15.02-9.53,0-12.71,6.26-12.71,15.02V850.46c0,15.02,9.53,20.03,23.03,20.03,4.77,0,8.74-.63,12.71-1.88v-317.92h-23.03v-83.86h123.9v459.98c-23.83,15.65-69.89,26.91-113.57,26.91-87.36,0-132.63-34.42-132.63-98.26Z"/>
  <path class="cls-1" d="M317.33,51.28h123.1c82.6,0,119.13,31.92,119.13,93.87v238.44c0,53.82-20.65,78.85-69.1,89.49,52.42,12.52,71.48,36.3,71.48,86.36v289.13c0,69.47-42.89,100.13-129.46,100.13h-115.16V51.28Zm110.4,384.26c19.06,0,25.41-8.14,25.41-25.66V153.91c0-15.02-7.94-20.65-25.41-20.65h-3.18V435.54h3.18Zm0,431.2c19.06,0,26.21-7.51,26.21-26.91v-300.4c0-16.27-7.15-23.78-26.21-23.78h-3.18v351.09h3.18Z"/>
</svg>