<?xml version="1.0" encoding="UTF-8"?>
<svg id="Calque_1" data-name="Calque 1" xmlns="http://www.w3.org/2000/svg" viewBox="0 0 609.42 983.27">
  <defs>
    <style>
      .cls-1 {
        fill: red;
      }
    </style>
  </defs>
  <path class="cls-1" d="M91.92,46.27h170.51l46.21,907.45h-109.16l-7.97-265.78h-30.28l-7.17,265.78H47.3L91.92,46.27Zm98.8,554.34l-13.55-454.99h-1.59l-13.55,454.99h28.68Z"/>
  <path class="cls-1" d="M319.26,46.27h118.17c90.41,0,124.52,38.6,124.52,101.88v226.55c0,54.42-22.21,82.9-71.38,94.92,56.31,12.66,70.59,33.54,70.59,73.41v410.7h-107.86v-420.19c0-17.09-7.14-22.78-26.97-22.78v442.97h-107.07V46.27Zm108.66,381.59c18.24,0,26.97-10.76,26.97-31.01V153.21c0-18.35-7.93-25.31-26.97-25.31h-1.59V427.86h1.59Z"/>
</svg>